<?xml version="1.0" encoding="UTF-8" standalone="no"?>
<!DOCTYPE svg PUBLIC "-//W3C//DTD SVG 1.1//EN"
 "http://www.w3.org/Graphics/SVG/1.1/DTD/svg11.dtd">
<!-- Generated by graphviz version 2.38.0 (20140413.2041)
 -->
<!-- Title: G Pages: 1 -->
<svg width="686pt" height="284pt"
 viewBox="0.00 0.00 685.98 284.00" xmlns="http://www.w3.org/2000/svg" xmlns:xlink="http://www.w3.org/1999/xlink">
<g id="graph0" class="graph" transform="scale(1 1) rotate(0) translate(4 280)">
<title>G</title>
<polygon fill="white" stroke="none" points="-4,4 -4,-280 681.977,-280 681.977,4 -4,4"/>
<g id="clust1" class="cluster"><title>cluster_Global</title>
<path fill="none" stroke="gray" d="M62.4885,-44C62.4885,-44 657.977,-44 657.977,-44 663.977,-44 669.977,-50 669.977,-56 669.977,-56 669.977,-256 669.977,-256 669.977,-262 663.977,-268 657.977,-268 657.977,-268 62.4885,-268 62.4885,-268 56.4885,-268 50.4885,-262 50.4885,-256 50.4885,-256 50.4885,-56 50.4885,-56 50.4885,-50 56.4885,-44 62.4885,-44"/>
<text text-anchor="middle" x="360.233" y="-255.2" font-family="Times New Roman,serif" font-size="11.00" fill="gray">Global</text>
</g>
<g id="clust2" class="cluster"><title>cluster_\Puspa</title>
<path fill="none" stroke="gray" d="M70.4885,-52C70.4885,-52 649.977,-52 649.977,-52 655.977,-52 661.977,-58 661.977,-64 661.977,-64 661.977,-228 661.977,-228 661.977,-234 655.977,-240 649.977,-240 649.977,-240 70.4885,-240 70.4885,-240 64.4885,-240 58.4885,-234 58.4885,-228 58.4885,-228 58.4885,-64 58.4885,-64 58.4885,-58 64.4885,-52 70.4885,-52"/>
<text text-anchor="middle" x="360.233" y="-227.2" font-family="Times New Roman,serif" font-size="11.00" fill="gray">Puspa</text>
</g>
<g id="clust3" class="cluster"><title>cluster_\Puspa\TaxSubject</title>
<path fill="none" stroke="gray" d="M78.4885,-140C78.4885,-140 641.977,-140 641.977,-140 647.977,-140 653.977,-146 653.977,-152 653.977,-152 653.977,-200 653.977,-200 653.977,-206 647.977,-212 641.977,-212 641.977,-212 78.4885,-212 78.4885,-212 72.4885,-212 66.4885,-206 66.4885,-200 66.4885,-200 66.4885,-152 66.4885,-152 66.4885,-146 72.4885,-140 78.4885,-140"/>
<text text-anchor="middle" x="360.233" y="-199.2" font-family="Times New Roman,serif" font-size="11.00" fill="gray">TaxSubject</text>
</g>
<g id="clust4" class="cluster"><title>cluster_\Puspa\TaxObject</title>
<path fill="none" stroke="gray" d="M339.477,-60C339.477,-60 641.977,-60 641.977,-60 647.977,-60 653.977,-66 653.977,-72 653.977,-72 653.977,-120 653.977,-120 653.977,-126 647.977,-132 641.977,-132 641.977,-132 339.477,-132 339.477,-132 333.477,-132 327.477,-126 327.477,-120 327.477,-120 327.477,-72 327.477,-72 327.477,-66 333.477,-60 339.477,-60"/>
<text text-anchor="middle" x="490.727" y="-119.2" font-family="Times New Roman,serif" font-size="11.00" fill="gray">TaxObject</text>
</g>
<!-- \\Puspa\\TaxSubject\\BaseSubjectTaxable -->
<g id="node1" class="node"><title>\\Puspa\\TaxSubject\\BaseSubjectTaxable</title>
<polygon fill="none" stroke="black" points="469.977,-184 331.977,-184 331.977,-148 469.977,-148 469.977,-184"/>
<text text-anchor="start" x="366.977" y="-169.2" font-family="Courier,monospace" font-size="11.00">«abstract»</text>
<text text-anchor="start" x="339.977" y="-157.2" font-family="Courier,monospace" font-size="11.00">BaseSubjectTaxable</text>
</g>
<!-- \\Puspa\\TaxSubject\\SubjectTaxable -->
<g id="node3" class="node"><title>\\Puspa\\TaxSubject\\SubjectTaxable</title>
<polygon fill="none" stroke="black" points="185.488,-184 74.4885,-184 74.4885,-148 185.488,-148 185.488,-184"/>
<text text-anchor="middle" x="129.988" y="-163.2" font-family="Courier,monospace" font-size="11.00">SubjectTaxable</text>
</g>
<!-- \\Puspa\\TaxSubject\\BaseSubjectTaxable&#45;&gt;\\Puspa\\TaxSubject\\SubjectTaxable -->
<g id="edge1" class="edge"><title>\\Puspa\\TaxSubject\\BaseSubjectTaxable&#45;&gt;\\Puspa\\TaxSubject\\SubjectTaxable</title>
<path fill="none" stroke="black" stroke-dasharray="1,5" d="M331.752,-166C289.998,-166 236.883,-166 195.775,-166"/>
<polygon fill="none" stroke="black" points="195.596,-162.5 185.596,-166 195.596,-169.5 195.596,-162.5"/>
</g>
<!-- \\Puspa\\TaxSubject\\PersonTaxable -->
<g id="node2" class="node"><title>\\Puspa\\TaxSubject\\PersonTaxable</title>
<polygon fill="none" stroke="black" points="645.977,-184 541.977,-184 541.977,-148 645.977,-148 645.977,-184"/>
<text text-anchor="middle" x="593.977" y="-163.2" font-family="Courier,monospace" font-size="11.00">PersonTaxable</text>
</g>
<!-- \\Puspa\\TaxSubject\\PersonTaxable&#45;&gt;\\Puspa\\TaxSubject\\BaseSubjectTaxable -->
<g id="edge2" class="edge"><title>\\Puspa\\TaxSubject\\PersonTaxable&#45;&gt;\\Puspa\\TaxSubject\\BaseSubjectTaxable</title>
<path fill="none" stroke="black" d="M541.792,-166C522.895,-166 501.023,-166 480.272,-166"/>
<polygon fill="none" stroke="black" points="480.193,-162.5 470.193,-166 480.193,-169.5 480.193,-162.5"/>
</g>
<!-- \\Puspa\\TaxObject\\IncomeTaxable -->
<g id="node4" class="node"><title>\\Puspa\\TaxObject\\IncomeTaxable</title>
<polygon fill="none" stroke="black" points="645.977,-104 541.977,-104 541.977,-68 645.977,-68 645.977,-104"/>
<text text-anchor="middle" x="593.977" y="-83.2" font-family="Courier,monospace" font-size="11.00">IncomeTaxable</text>
</g>
<!-- \\Puspa\\TaxObject\\BaseObjectTaxable -->
<g id="node5" class="node"><title>\\Puspa\\TaxObject\\BaseObjectTaxable</title>
<polygon fill="none" stroke="black" points="466.477,-104 335.477,-104 335.477,-68 466.477,-68 466.477,-104"/>
<text text-anchor="start" x="366.977" y="-89.2" font-family="Courier,monospace" font-size="11.00">«abstract»</text>
<text text-anchor="start" x="343.477" y="-77.2" font-family="Courier,monospace" font-size="11.00">BaseObjectTaxable</text>
</g>
<!-- \\Puspa\\TaxObject\\IncomeTaxable&#45;&gt;\\Puspa\\TaxObject\\BaseObjectTaxable -->
<g id="edge3" class="edge"><title>\\Puspa\\TaxObject\\IncomeTaxable&#45;&gt;\\Puspa\\TaxObject\\BaseObjectTaxable</title>
<path fill="none" stroke="black" d="M541.792,-86C521.855,-86 498.607,-86 476.857,-86"/>
<polygon fill="none" stroke="black" points="476.655,-82.5001 466.655,-86 476.655,-89.5001 476.655,-82.5001"/>
</g>
<!-- \\Puspa\\TaxObject\\ObjectTaxable -->
<g id="node6" class="node"><title>\\Puspa\\TaxObject\\ObjectTaxable</title>
<ellipse fill="none" stroke="black" cx="129.988" cy="-18" rx="129.977" ry="18"/>
<text text-anchor="middle" x="129.988" y="-14.3" font-family="Times New Roman,serif" font-size="14.00" fill="gray">\PuspaTaxObject\ObjectTaxable</text>
</g>
<!-- \\Puspa\\TaxObject\\BaseObjectTaxable&#45;&gt;\\Puspa\\TaxObject\\ObjectTaxable -->
<g id="edge4" class="edge"><title>\\Puspa\\TaxObject\\BaseObjectTaxable&#45;&gt;\\Puspa\\TaxObject\\ObjectTaxable</title>
<path fill="none" stroke="black" stroke-dasharray="1,5" d="M335.205,-69.6258C295.424,-59.5691 244.394,-46.6688 203.297,-36.2796"/>
<polygon fill="none" stroke="black" points="203.899,-32.8217 193.346,-33.764 202.183,-39.6082 203.899,-32.8217"/>
</g>
</g>
</svg>
