<?xml version="1.0" encoding="UTF-8" standalone="no"?>
<!DOCTYPE svg PUBLIC "-//W3C//DTD SVG 1.1//EN"
 "http://www.w3.org/Graphics/SVG/1.1/DTD/svg11.dtd">
<!-- Generated by graphviz version 2.38.0 (20140413.2041)
 -->
<!-- Title: G Pages: 1 -->
<svg width="569pt" height="248pt"
 viewBox="0.00 0.00 569.00 248.00" xmlns="http://www.w3.org/2000/svg" xmlns:xlink="http://www.w3.org/1999/xlink">
<g id="graph0" class="graph" transform="scale(1 1) rotate(0) translate(4 244)">
<title>G</title>
<polygon fill="white" stroke="none" points="-4,4 -4,-244 565,-244 565,4 -4,4"/>
<g id="clust1" class="cluster"><title>cluster_Global</title>
<path fill="none" stroke="gray" d="M20,-8C20,-8 541,-8 541,-8 547,-8 553,-14 553,-20 553,-20 553,-220 553,-220 553,-226 547,-232 541,-232 541,-232 20,-232 20,-232 14,-232 8,-226 8,-220 8,-220 8,-20 8,-20 8,-14 14,-8 20,-8"/>
<text text-anchor="middle" x="280.5" y="-219.2" font-family="Times New Roman,serif" font-size="11.00" fill="gray">Global</text>
</g>
<g id="clust2" class="cluster"><title>cluster_\Puspa</title>
<path fill="none" stroke="gray" d="M28,-16C28,-16 533,-16 533,-16 539,-16 545,-22 545,-28 545,-28 545,-192 545,-192 545,-198 539,-204 533,-204 533,-204 28,-204 28,-204 22,-204 16,-198 16,-192 16,-192 16,-28 16,-28 16,-22 22,-16 28,-16"/>
<text text-anchor="middle" x="280.5" y="-191.2" font-family="Times New Roman,serif" font-size="11.00" fill="gray">Puspa</text>
</g>
<g id="clust3" class="cluster"><title>cluster_\Puspa\TaxSubject</title>
<path fill="none" stroke="gray" d="M36,-104C36,-104 525,-104 525,-104 531,-104 537,-110 537,-116 537,-116 537,-164 537,-164 537,-170 531,-176 525,-176 525,-176 36,-176 36,-176 30,-176 24,-170 24,-164 24,-164 24,-116 24,-116 24,-110 30,-104 36,-104"/>
<text text-anchor="middle" x="280.5" y="-163.2" font-family="Times New Roman,serif" font-size="11.00" fill="gray">TaxSubject</text>
</g>
<g id="clust4" class="cluster"><title>cluster_\Puspa\TaxObject</title>
<path fill="none" stroke="gray" d="M39.5,-24C39.5,-24 525,-24 525,-24 531,-24 537,-30 537,-36 537,-36 537,-84 537,-84 537,-90 531,-96 525,-96 525,-96 39.5,-96 39.5,-96 33.5,-96 27.5,-90 27.5,-84 27.5,-84 27.5,-36 27.5,-36 27.5,-30 33.5,-24 39.5,-24"/>
<text text-anchor="middle" x="282.25" y="-83.2" font-family="Times New Roman,serif" font-size="11.00" fill="gray">TaxObject</text>
</g>
<!-- \\Puspa\\TaxSubject\\BaseSubjectTaxable -->
<g id="node1" class="node"><title>\\Puspa\\TaxSubject\\BaseSubjectTaxable</title>
<polygon fill="none" stroke="black" points="353,-148 215,-148 215,-112 353,-112 353,-148"/>
<text text-anchor="start" x="250" y="-133.2" font-family="Courier,monospace" font-size="11.00">«abstract»</text>
<text text-anchor="start" x="223" y="-121.2" font-family="Courier,monospace" font-size="11.00">BaseSubjectTaxable</text>
</g>
<!-- \\Puspa\\TaxSubject\\SubjectTaxable -->
<g id="node3" class="node"><title>\\Puspa\\TaxSubject\\SubjectTaxable</title>
<polygon fill="none" stroke="black" points="143,-148 32,-148 32,-112 143,-112 143,-148"/>
<text text-anchor="middle" x="87.5" y="-127.2" font-family="Courier,monospace" font-size="11.00">SubjectTaxable</text>
</g>
<!-- \\Puspa\\TaxSubject\\BaseSubjectTaxable&#45;&gt;\\Puspa\\TaxSubject\\SubjectTaxable -->
<g id="edge1" class="edge"><title>\\Puspa\\TaxSubject\\BaseSubjectTaxable&#45;&gt;\\Puspa\\TaxSubject\\SubjectTaxable</title>
<path fill="none" stroke="black" stroke-dasharray="1,5" d="M214.973,-130C194.917,-130 173.032,-130 153.191,-130"/>
<polygon fill="none" stroke="black" points="153.023,-126.5 143.023,-130 153.023,-133.5 153.023,-126.5"/>
</g>
<!-- \\Puspa\\TaxSubject\\PersonTaxable -->
<g id="node2" class="node"><title>\\Puspa\\TaxSubject\\PersonTaxable</title>
<polygon fill="none" stroke="black" points="529,-148 425,-148 425,-112 529,-112 529,-148"/>
<text text-anchor="middle" x="477" y="-127.2" font-family="Courier,monospace" font-size="11.00">PersonTaxable</text>
</g>
<!-- \\Puspa\\TaxSubject\\PersonTaxable&#45;&gt;\\Puspa\\TaxSubject\\BaseSubjectTaxable -->
<g id="edge2" class="edge"><title>\\Puspa\\TaxSubject\\PersonTaxable&#45;&gt;\\Puspa\\TaxSubject\\BaseSubjectTaxable</title>
<path fill="none" stroke="black" d="M424.816,-130C405.918,-130 384.046,-130 363.295,-130"/>
<polygon fill="none" stroke="black" points="363.216,-126.5 353.216,-130 363.216,-133.5 363.216,-126.5"/>
</g>
<!-- \\Puspa\\TaxObject\\IncomeTaxable -->
<g id="node4" class="node"><title>\\Puspa\\TaxObject\\IncomeTaxable</title>
<polygon fill="none" stroke="black" points="529,-68 425,-68 425,-32 529,-32 529,-68"/>
<text text-anchor="middle" x="477" y="-47.2" font-family="Courier,monospace" font-size="11.00">IncomeTaxable</text>
</g>
<!-- \\Puspa\\TaxObject\\BaseObjectTaxable -->
<g id="node5" class="node"><title>\\Puspa\\TaxObject\\BaseObjectTaxable</title>
<polygon fill="none" stroke="black" points="349.5,-68 218.5,-68 218.5,-32 349.5,-32 349.5,-68"/>
<text text-anchor="start" x="250" y="-53.2" font-family="Courier,monospace" font-size="11.00">«abstract»</text>
<text text-anchor="start" x="226.5" y="-41.2" font-family="Courier,monospace" font-size="11.00">BaseObjectTaxable</text>
</g>
<!-- \\Puspa\\TaxObject\\IncomeTaxable&#45;&gt;\\Puspa\\TaxObject\\BaseObjectTaxable -->
<g id="edge3" class="edge"><title>\\Puspa\\TaxObject\\IncomeTaxable&#45;&gt;\\Puspa\\TaxObject\\BaseObjectTaxable</title>
<path fill="none" stroke="black" d="M424.816,-50C404.878,-50 381.63,-50 359.88,-50"/>
<polygon fill="none" stroke="black" points="359.678,-46.5001 349.678,-50 359.678,-53.5001 359.678,-46.5001"/>
</g>
<!-- \\Puspa\\TaxObject\\ObjectTaxable -->
<g id="node6" class="node"><title>\\Puspa\\TaxObject\\ObjectTaxable</title>
<polygon fill="none" stroke="black" points="139.5,-68 35.5,-68 35.5,-32 139.5,-32 139.5,-68"/>
<text text-anchor="middle" x="87.5" y="-47.2" font-family="Courier,monospace" font-size="11.00">ObjectTaxable</text>
</g>
<!-- \\Puspa\\TaxObject\\BaseObjectTaxable&#45;&gt;\\Puspa\\TaxObject\\ObjectTaxable -->
<g id="edge4" class="edge"><title>\\Puspa\\TaxObject\\BaseObjectTaxable&#45;&gt;\\Puspa\\TaxObject\\ObjectTaxable</title>
<path fill="none" stroke="black" stroke-dasharray="1,5" d="M218.234,-50C196.197,-50 171.645,-50 149.881,-50"/>
<polygon fill="none" stroke="black" points="149.772,-46.5001 139.771,-50 149.771,-53.5001 149.772,-46.5001"/>
</g>
</g>
</svg>
