<?xml version="1.0" encoding="UTF-8" standalone="no"?>
<!DOCTYPE svg PUBLIC "-//W3C//DTD SVG 1.1//EN"
 "http://www.w3.org/Graphics/SVG/1.1/DTD/svg11.dtd">
<!-- Generated by graphviz version 2.38.0 (20140413.2041)
 -->
<!-- Title: G Pages: 1 -->
<svg width="772pt" height="534pt"
 viewBox="0.00 0.00 771.77 534.00" xmlns="http://www.w3.org/2000/svg" xmlns:xlink="http://www.w3.org/1999/xlink">
<g id="graph0" class="graph" transform="scale(1 1) rotate(0) translate(4 530)">
<title>G</title>
<polygon fill="white" stroke="none" points="-4,4 -4,-530 767.773,-530 767.773,4 -4,4"/>
<g id="clust1" class="cluster"><title>cluster_Global</title>
<path fill="none" stroke="gray" d="M20,-44C20,-44 743.773,-44 743.773,-44 749.773,-44 755.773,-50 755.773,-56 755.773,-56 755.773,-506 755.773,-506 755.773,-512 749.773,-518 743.773,-518 743.773,-518 20,-518 20,-518 14,-518 8,-512 8,-506 8,-506 8,-56 8,-56 8,-50 14,-44 20,-44"/>
<text text-anchor="middle" x="381.886" y="-505.2" font-family="Times New Roman,serif" font-size="11.00" fill="gray">Global</text>
</g>
<g id="clust2" class="cluster"><title>cluster_\Puspa</title>
<path fill="none" stroke="gray" d="M28,-52C28,-52 735.773,-52 735.773,-52 741.773,-52 747.773,-58 747.773,-64 747.773,-64 747.773,-478 747.773,-478 747.773,-484 741.773,-490 735.773,-490 735.773,-490 28,-490 28,-490 22,-490 16,-484 16,-478 16,-478 16,-64 16,-64 16,-58 22,-52 28,-52"/>
<text text-anchor="middle" x="381.886" y="-477.2" font-family="Times New Roman,serif" font-size="11.00" fill="gray">Puspa</text>
</g>
<g id="clust3" class="cluster"><title>cluster_\Puspa\TaxCalculator</title>
<path fill="none" stroke="gray" d="M46,-390C46,-390 727.773,-390 727.773,-390 733.773,-390 739.773,-396 739.773,-402 739.773,-402 739.773,-450 739.773,-450 739.773,-456 733.773,-462 727.773,-462 727.773,-462 46,-462 46,-462 40,-462 34,-456 34,-450 34,-450 34,-402 34,-402 34,-396 40,-390 46,-390"/>
<text text-anchor="middle" x="386.886" y="-449.2" font-family="Times New Roman,serif" font-size="11.00" fill="gray">TaxCalculator</text>
</g>
<g id="clust4" class="cluster"><title>cluster_\Puspa\TaxLaw</title>
<path fill="none" stroke="gray" d="M36,-220C36,-220 690.273,-220 690.273,-220 696.273,-220 702.273,-226 702.273,-232 702.273,-232 702.273,-370 702.273,-370 702.273,-376 696.273,-382 690.273,-382 690.273,-382 36,-382 36,-382 30,-382 24,-376 24,-370 24,-370 24,-232 24,-232 24,-226 30,-220 36,-220"/>
<text text-anchor="middle" x="363.136" y="-369.2" font-family="Times New Roman,serif" font-size="11.00" fill="gray">TaxLaw</text>
</g>
<g id="clust5" class="cluster"><title>cluster_\Puspa\TaxLaw\IncomeTax</title>
<path fill="none" stroke="gray" d="M636.273,-228C636.273,-228 682.273,-228 682.273,-228 688.273,-228 694.273,-234 694.273,-240 694.273,-240 694.273,-342 694.273,-342 694.273,-348 688.273,-354 682.273,-354 682.273,-354 636.273,-354 636.273,-354 630.273,-354 624.273,-348 624.273,-342 624.273,-342 624.273,-240 624.273,-240 624.273,-234 630.273,-228 636.273,-228"/>
<text text-anchor="middle" x="659.273" y="-341.2" font-family="Times New Roman,serif" font-size="11.00" fill="gray">IncomeTax</text>
</g>
<g id="clust6" class="cluster"><title>cluster_\Puspa\TaxObject</title>
<path fill="none" stroke="gray" d="M36,-140C36,-140 707.273,-140 707.273,-140 713.273,-140 719.273,-146 719.273,-152 719.273,-152 719.273,-200 719.273,-200 719.273,-206 713.273,-212 707.273,-212 707.273,-212 36,-212 36,-212 30,-212 24,-206 24,-200 24,-200 24,-152 24,-152 24,-146 30,-140 36,-140"/>
<text text-anchor="middle" x="371.636" y="-199.2" font-family="Times New Roman,serif" font-size="11.00" fill="gray">TaxObject</text>
</g>
<g id="clust7" class="cluster"><title>cluster_\Puspa\TaxSubject</title>
<path fill="none" stroke="gray" d="M611.273,-60C611.273,-60 707.273,-60 707.273,-60 713.273,-60 719.273,-66 719.273,-72 719.273,-72 719.273,-120 719.273,-120 719.273,-126 713.273,-132 707.273,-132 707.273,-132 611.273,-132 611.273,-132 605.273,-132 599.273,-126 599.273,-120 599.273,-120 599.273,-72 599.273,-72 599.273,-66 605.273,-60 611.273,-60"/>
<text text-anchor="middle" x="659.273" y="-119.2" font-family="Times New Roman,serif" font-size="11.00" fill="gray">TaxSubject</text>
</g>
<!-- \\Puspa\\TaxCalculator\\BaseCalculator -->
<g id="node1" class="node"><title>\\Puspa\\TaxCalculator\\BaseCalculator</title>
<polygon fill="none" stroke="black" points="416.886,-434 305.886,-434 305.886,-398 416.886,-398 416.886,-434"/>
<text text-anchor="middle" x="361.386" y="-413.2" font-family="Courier,monospace" font-size="11.00">BaseCalculator</text>
</g>
<!-- \\Puspa\\TaxCalculator\\Calculator -->
<g id="node3" class="node"><title>\\Puspa\\TaxCalculator\\Calculator</title>
<polygon fill="none" stroke="black" points="126,-434 42,-434 42,-398 126,-398 126,-434"/>
<text text-anchor="middle" x="84" y="-413.2" font-family="Courier,monospace" font-size="11.00">Calculator</text>
</g>
<!-- \\Puspa\\TaxCalculator\\BaseCalculator&#45;&gt;\\Puspa\\TaxCalculator\\Calculator -->
<g id="edge1" class="edge"><title>\\Puspa\\TaxCalculator\\BaseCalculator&#45;&gt;\\Puspa\\TaxCalculator\\Calculator</title>
<path fill="none" stroke="black" stroke-dasharray="1,5" d="M305.65,-416C256.402,-416 184.583,-416 136.393,-416"/>
<polygon fill="none" stroke="black" points="136.185,-412.5 126.185,-416 136.184,-419.5 136.185,-412.5"/>
</g>
<!-- \\Puspa\\TaxCalculator\\IncomeTaxCalculator -->
<g id="node2" class="node"><title>\\Puspa\\TaxCalculator\\IncomeTaxCalculator</title>
<polygon fill="none" stroke="black" points="731.773,-434 586.773,-434 586.773,-398 731.773,-398 731.773,-434"/>
<text text-anchor="middle" x="659.273" y="-413.2" font-family="Courier,monospace" font-size="11.00">IncomeTaxCalculator</text>
</g>
<!-- \\Puspa\\TaxCalculator\\IncomeTaxCalculator&#45;&gt;\\Puspa\\TaxCalculator\\BaseCalculator -->
<g id="edge2" class="edge"><title>\\Puspa\\TaxCalculator\\IncomeTaxCalculator&#45;&gt;\\Puspa\\TaxCalculator\\BaseCalculator</title>
<path fill="none" stroke="black" d="M586.647,-416C538.048,-416 474.319,-416 427.222,-416"/>
<polygon fill="none" stroke="black" points="427.136,-412.5 417.136,-416 427.136,-419.5 427.136,-412.5"/>
</g>
<!-- \\Puspa\\TaxLaw\\IncomeTax\\PPh21 -->
<g id="node4" class="node"><title>\\Puspa\\TaxLaw\\IncomeTax\\PPh21</title>
<polygon fill="none" stroke="black" points="686.273,-326 632.273,-326 632.273,-290 686.273,-290 686.273,-326"/>
<text text-anchor="middle" x="659.273" y="-305.2" font-family="Courier,monospace" font-size="11.00">PPh21</text>
</g>
<!-- \\Puspa\\TaxLaw\\BaseTaxLaw -->
<g id="node6" class="node"><title>\\Puspa\\TaxLaw\\BaseTaxLaw</title>
<polygon fill="none" stroke="black" points="403.386,-326 319.386,-326 319.386,-290 403.386,-290 403.386,-326"/>
<text text-anchor="start" x="327.386" y="-311.2" font-family="Courier,monospace" font-size="11.00">«abstract»</text>
<text text-anchor="start" x="327.386" y="-299.2" font-family="Courier,monospace" font-size="11.00">BaseTaxLaw</text>
</g>
<!-- \\Puspa\\TaxLaw\\IncomeTax\\PPh21&#45;&gt;\\Puspa\\TaxLaw\\BaseTaxLaw -->
<g id="edge4" class="edge"><title>\\Puspa\\TaxLaw\\IncomeTax\\PPh21&#45;&gt;\\Puspa\\TaxLaw\\BaseTaxLaw</title>
<path fill="none" stroke="black" d="M632.015,-308C583.114,-308 477.301,-308 413.741,-308"/>
<polygon fill="none" stroke="black" points="413.535,-304.5 403.535,-308 413.535,-311.5 413.535,-304.5"/>
</g>
<!-- \\Puspa\\TaxLaw\\IncomeTax\\PTKP -->
<g id="node5" class="node"><title>\\Puspa\\TaxLaw\\IncomeTax\\PTKP</title>
<polygon fill="none" stroke="black" points="686.273,-272 632.273,-272 632.273,-236 686.273,-236 686.273,-272"/>
<text text-anchor="middle" x="659.273" y="-251.2" font-family="Courier,monospace" font-size="11.00">PTKP</text>
</g>
<!-- \\Puspa\\TaxLaw\\LawApplicable -->
<g id="node7" class="node"><title>\\Puspa\\TaxLaw\\LawApplicable</title>
<polygon fill="none" stroke="black" points="136,-326 32,-326 32,-290 136,-290 136,-326"/>
<text text-anchor="middle" x="84" y="-305.2" font-family="Courier,monospace" font-size="11.00">LawApplicable</text>
</g>
<!-- \\Puspa\\TaxLaw\\BaseTaxLaw&#45;&gt;\\Puspa\\TaxLaw\\LawApplicable -->
<g id="edge3" class="edge"><title>\\Puspa\\TaxLaw\\BaseTaxLaw&#45;&gt;\\Puspa\\TaxLaw\\LawApplicable</title>
<path fill="none" stroke="black" stroke-dasharray="1,5" d="M319.158,-308C273.441,-308 199.212,-308 146.596,-308"/>
<polygon fill="none" stroke="black" points="146.376,-304.5 136.375,-308 146.375,-311.5 146.376,-304.5"/>
</g>
<!-- \\Puspa\\TaxObject\\BaseObjectTaxable -->
<g id="node8" class="node"><title>\\Puspa\\TaxObject\\BaseObjectTaxable</title>
<polygon fill="none" stroke="black" points="426.886,-184 295.886,-184 295.886,-148 426.886,-148 426.886,-184"/>
<text text-anchor="start" x="327.386" y="-169.2" font-family="Courier,monospace" font-size="11.00">«abstract»</text>
<text text-anchor="start" x="303.886" y="-157.2" font-family="Courier,monospace" font-size="11.00">BaseObjectTaxable</text>
</g>
<!-- \\Puspa\\TaxObject\\ObjectTaxable -->
<g id="node10" class="node"><title>\\Puspa\\TaxObject\\ObjectTaxable</title>
<polygon fill="none" stroke="black" points="136,-184 32,-184 32,-148 136,-148 136,-184"/>
<text text-anchor="middle" x="84" y="-163.2" font-family="Courier,monospace" font-size="11.00">ObjectTaxable</text>
</g>
<!-- \\Puspa\\TaxObject\\BaseObjectTaxable&#45;&gt;\\Puspa\\TaxObject\\ObjectTaxable -->
<g id="edge5" class="edge"><title>\\Puspa\\TaxObject\\BaseObjectTaxable&#45;&gt;\\Puspa\\TaxObject\\ObjectTaxable</title>
<path fill="none" stroke="black" stroke-dasharray="1,5" d="M295.821,-166C250.689,-166 190.792,-166 146.379,-166"/>
<polygon fill="none" stroke="black" points="146.296,-162.5 136.296,-166 146.296,-169.5 146.296,-162.5"/>
</g>
<!-- \\Puspa\\TaxObject\\IncomeTaxable -->
<g id="node9" class="node"><title>\\Puspa\\TaxObject\\IncomeTaxable</title>
<polygon fill="none" stroke="black" points="711.273,-184 607.273,-184 607.273,-148 711.273,-148 711.273,-184"/>
<text text-anchor="middle" x="659.273" y="-163.2" font-family="Courier,monospace" font-size="11.00">IncomeTaxable</text>
</g>
<!-- \\Puspa\\TaxObject\\IncomeTaxable&#45;&gt;\\Puspa\\TaxObject\\BaseObjectTaxable -->
<g id="edge6" class="edge"><title>\\Puspa\\TaxObject\\IncomeTaxable&#45;&gt;\\Puspa\\TaxObject\\BaseObjectTaxable</title>
<path fill="none" stroke="black" d="M607.071,-166C560.144,-166 490.091,-166 436.952,-166"/>
<polygon fill="none" stroke="black" points="436.899,-162.5 426.899,-166 436.899,-169.5 436.899,-162.5"/>
</g>
<!-- \\Puspa\\TaxSubject\\PersonTaxable -->
<g id="node11" class="node"><title>\\Puspa\\TaxSubject\\PersonTaxable</title>
<polygon fill="none" stroke="black" points="711.273,-104 607.273,-104 607.273,-68 711.273,-68 711.273,-104"/>
<text text-anchor="middle" x="659.273" y="-83.2" font-family="Courier,monospace" font-size="11.00">PersonTaxable</text>
</g>
<!-- \\Puspa\\TaxSubject\\BaseSubjectTaxable -->
<g id="node12" class="node"><title>\\Puspa\\TaxSubject\\BaseSubjectTaxable</title>
<ellipse fill="none" stroke="black" cx="361.386" cy="-18" rx="153.273" ry="18"/>
<text text-anchor="middle" x="361.386" y="-14.3" font-family="Times New Roman,serif" font-size="14.00" fill="gray">\PuspaTaxSubject\BaseSubjectTaxable</text>
</g>
<!-- \\Puspa\\TaxSubject\\PersonTaxable&#45;&gt;\\Puspa\\TaxSubject\\BaseSubjectTaxable -->
<g id="edge7" class="edge"><title>\\Puspa\\TaxSubject\\PersonTaxable&#45;&gt;\\Puspa\\TaxSubject\\BaseSubjectTaxable</title>
<path fill="none" stroke="black" d="M607.071,-74.2329C561.62,-63.7874 494.475,-48.3564 442.015,-36.3002"/>
<polygon fill="none" stroke="black" points="442.595,-32.8422 432.065,-34.0134 441.027,-39.6643 442.595,-32.8422"/>
</g>
</g>
</svg>
