<?xml version="1.0" encoding="UTF-8" standalone="no"?>
<!DOCTYPE svg PUBLIC "-//W3C//DTD SVG 1.1//EN"
 "http://www.w3.org/Graphics/SVG/1.1/DTD/svg11.dtd">
<!-- Generated by graphviz version 2.38.0 (20140413.2041)
 -->
<!-- Title: G Pages: 1 -->
<svg width="569pt" height="444pt"
 viewBox="0.00 0.00 569.00 444.00" xmlns="http://www.w3.org/2000/svg" xmlns:xlink="http://www.w3.org/1999/xlink">
<g id="graph0" class="graph" transform="scale(1 1) rotate(0) translate(4 440)">
<title>G</title>
<polygon fill="white" stroke="none" points="-4,4 -4,-440 565,-440 565,4 -4,4"/>
<g id="clust1" class="cluster"><title>cluster_Global</title>
<path fill="none" stroke="gray" d="M20,-8C20,-8 541,-8 541,-8 547,-8 553,-14 553,-20 553,-20 553,-416 553,-416 553,-422 547,-428 541,-428 541,-428 20,-428 20,-428 14,-428 8,-422 8,-416 8,-416 8,-20 8,-20 8,-14 14,-8 20,-8"/>
<text text-anchor="middle" x="280.5" y="-415.2" font-family="Times New Roman,serif" font-size="11.00" fill="gray">Global</text>
</g>
<g id="clust2" class="cluster"><title>cluster_\Puspa</title>
<path fill="none" stroke="gray" d="M28,-16C28,-16 533,-16 533,-16 539,-16 545,-22 545,-28 545,-28 545,-388 545,-388 545,-394 539,-400 533,-400 533,-400 28,-400 28,-400 22,-400 16,-394 16,-388 16,-388 16,-28 16,-28 16,-22 22,-16 28,-16"/>
<text text-anchor="middle" x="280.5" y="-387.2" font-family="Times New Roman,serif" font-size="11.00" fill="gray">Puspa</text>
</g>
<g id="clust3" class="cluster"><title>cluster_\Puspa\TaxSubject</title>
<path fill="none" stroke="gray" d="M36,-300C36,-300 525,-300 525,-300 531,-300 537,-306 537,-312 537,-312 537,-360 537,-360 537,-366 531,-372 525,-372 525,-372 36,-372 36,-372 30,-372 24,-366 24,-360 24,-360 24,-312 24,-312 24,-306 30,-300 36,-300"/>
<text text-anchor="middle" x="280.5" y="-359.2" font-family="Times New Roman,serif" font-size="11.00" fill="gray">TaxSubject</text>
</g>
<g id="clust4" class="cluster"><title>cluster_\Puspa\TaxCalculator</title>
<path fill="none" stroke="gray" d="M439,-220C439,-220 515,-220 515,-220 521,-220 527,-226 527,-232 527,-232 527,-280 527,-280 527,-286 521,-292 515,-292 515,-292 439,-292 439,-292 433,-292 427,-286 427,-280 427,-280 427,-232 427,-232 427,-226 433,-220 439,-220"/>
<text text-anchor="middle" x="477" y="-279.2" font-family="Times New Roman,serif" font-size="11.00" fill="gray">TaxCalculator</text>
</g>
<g id="clust5" class="cluster"><title>cluster_\Puspa\TaxObject</title>
<path fill="none" stroke="gray" d="M39.5,-140C39.5,-140 525,-140 525,-140 531,-140 537,-146 537,-152 537,-152 537,-200 537,-200 537,-206 531,-212 525,-212 525,-212 39.5,-212 39.5,-212 33.5,-212 27.5,-206 27.5,-200 27.5,-200 27.5,-152 27.5,-152 27.5,-146 33.5,-140 39.5,-140"/>
<text text-anchor="middle" x="282.25" y="-199.2" font-family="Times New Roman,serif" font-size="11.00" fill="gray">TaxObject</text>
</g>
<g id="clust6" class="cluster"><title>cluster_\Puspa\TaxLaw</title>
<path fill="none" stroke="gray" d="M236,-24C236,-24 523,-24 523,-24 529,-24 535,-30 535,-36 535,-36 535,-120 535,-120 535,-126 529,-132 523,-132 523,-132 236,-132 236,-132 230,-132 224,-126 224,-120 224,-120 224,-36 224,-36 224,-30 230,-24 236,-24"/>
<text text-anchor="middle" x="379.5" y="-119.2" font-family="Times New Roman,serif" font-size="11.00" fill="gray">TaxLaw</text>
</g>
<g id="clust7" class="cluster"><title>cluster_\Puspa\TaxLaw\IncomeTax</title>
<path fill="none" stroke="gray" d="M439,-32C439,-32 515,-32 515,-32 521,-32 527,-38 527,-44 527,-44 527,-92 527,-92 527,-98 521,-104 515,-104 515,-104 439,-104 439,-104 433,-104 427,-98 427,-92 427,-92 427,-44 427,-44 427,-38 433,-32 439,-32"/>
<text text-anchor="middle" x="477" y="-91.2" font-family="Times New Roman,serif" font-size="11.00" fill="gray">IncomeTax</text>
</g>
<!-- \\Puspa\\TaxSubject\\BaseSubjectTaxable -->
<g id="node1" class="node"><title>\\Puspa\\TaxSubject\\BaseSubjectTaxable</title>
<polygon fill="none" stroke="black" points="353,-344 215,-344 215,-308 353,-308 353,-344"/>
<text text-anchor="start" x="250" y="-329.2" font-family="Courier,monospace" font-size="11.00">«abstract»</text>
<text text-anchor="start" x="223" y="-317.2" font-family="Courier,monospace" font-size="11.00">BaseSubjectTaxable</text>
</g>
<!-- \\Puspa\\TaxSubject\\SubjectTaxable -->
<g id="node3" class="node"><title>\\Puspa\\TaxSubject\\SubjectTaxable</title>
<polygon fill="none" stroke="black" points="143,-344 32,-344 32,-308 143,-308 143,-344"/>
<text text-anchor="middle" x="87.5" y="-323.2" font-family="Courier,monospace" font-size="11.00">SubjectTaxable</text>
</g>
<!-- \\Puspa\\TaxSubject\\BaseSubjectTaxable&#45;&gt;\\Puspa\\TaxSubject\\SubjectTaxable -->
<g id="edge1" class="edge"><title>\\Puspa\\TaxSubject\\BaseSubjectTaxable&#45;&gt;\\Puspa\\TaxSubject\\SubjectTaxable</title>
<path fill="none" stroke="black" stroke-dasharray="1,5" d="M214.973,-326C194.917,-326 173.032,-326 153.191,-326"/>
<polygon fill="none" stroke="black" points="153.023,-322.5 143.023,-326 153.023,-329.5 153.023,-322.5"/>
</g>
<!-- \\Puspa\\TaxSubject\\PersonTaxable -->
<g id="node2" class="node"><title>\\Puspa\\TaxSubject\\PersonTaxable</title>
<polygon fill="none" stroke="black" points="529,-344 425,-344 425,-308 529,-308 529,-344"/>
<text text-anchor="middle" x="477" y="-323.2" font-family="Courier,monospace" font-size="11.00">PersonTaxable</text>
</g>
<!-- \\Puspa\\TaxSubject\\PersonTaxable&#45;&gt;\\Puspa\\TaxSubject\\BaseSubjectTaxable -->
<g id="edge2" class="edge"><title>\\Puspa\\TaxSubject\\PersonTaxable&#45;&gt;\\Puspa\\TaxSubject\\BaseSubjectTaxable</title>
<path fill="none" stroke="black" d="M424.816,-326C405.918,-326 384.046,-326 363.295,-326"/>
<polygon fill="none" stroke="black" points="363.216,-322.5 353.216,-326 363.216,-329.5 363.216,-322.5"/>
</g>
<!-- \\Puspa\\TaxCalculator\\Calculator -->
<g id="node4" class="node"><title>\\Puspa\\TaxCalculator\\Calculator</title>
<polygon fill="none" stroke="black" points="519,-264 435,-264 435,-228 519,-228 519,-264"/>
<text text-anchor="middle" x="477" y="-243.2" font-family="Courier,monospace" font-size="11.00">Calculator</text>
</g>
<!-- \\Puspa\\TaxObject\\IncomeTaxable -->
<g id="node5" class="node"><title>\\Puspa\\TaxObject\\IncomeTaxable</title>
<polygon fill="none" stroke="black" points="529,-184 425,-184 425,-148 529,-148 529,-184"/>
<text text-anchor="middle" x="477" y="-163.2" font-family="Courier,monospace" font-size="11.00">IncomeTaxable</text>
</g>
<!-- \\Puspa\\TaxObject\\BaseObjectTaxable -->
<g id="node6" class="node"><title>\\Puspa\\TaxObject\\BaseObjectTaxable</title>
<polygon fill="none" stroke="black" points="349.5,-184 218.5,-184 218.5,-148 349.5,-148 349.5,-184"/>
<text text-anchor="start" x="250" y="-169.2" font-family="Courier,monospace" font-size="11.00">«abstract»</text>
<text text-anchor="start" x="226.5" y="-157.2" font-family="Courier,monospace" font-size="11.00">BaseObjectTaxable</text>
</g>
<!-- \\Puspa\\TaxObject\\IncomeTaxable&#45;&gt;\\Puspa\\TaxObject\\BaseObjectTaxable -->
<g id="edge3" class="edge"><title>\\Puspa\\TaxObject\\IncomeTaxable&#45;&gt;\\Puspa\\TaxObject\\BaseObjectTaxable</title>
<path fill="none" stroke="black" d="M424.816,-166C404.878,-166 381.63,-166 359.88,-166"/>
<polygon fill="none" stroke="black" points="359.678,-162.5 349.678,-166 359.678,-169.5 359.678,-162.5"/>
</g>
<!-- \\Puspa\\TaxObject\\ObjectTaxable -->
<g id="node7" class="node"><title>\\Puspa\\TaxObject\\ObjectTaxable</title>
<polygon fill="none" stroke="black" points="139.5,-184 35.5,-184 35.5,-148 139.5,-148 139.5,-184"/>
<text text-anchor="middle" x="87.5" y="-163.2" font-family="Courier,monospace" font-size="11.00">ObjectTaxable</text>
</g>
<!-- \\Puspa\\TaxObject\\BaseObjectTaxable&#45;&gt;\\Puspa\\TaxObject\\ObjectTaxable -->
<g id="edge5" class="edge"><title>\\Puspa\\TaxObject\\BaseObjectTaxable&#45;&gt;\\Puspa\\TaxObject\\ObjectTaxable</title>
<path fill="none" stroke="black" stroke-dasharray="1,5" d="M218.234,-166C196.197,-166 171.645,-166 149.881,-166"/>
<polygon fill="none" stroke="black" points="149.772,-162.5 139.771,-166 149.771,-169.5 149.772,-162.5"/>
</g>
<!-- \\Puspa\\TaxLaw\\IncomeTax\\PPh21 -->
<g id="node8" class="node"><title>\\Puspa\\TaxLaw\\IncomeTax\\PPh21</title>
<polygon fill="none" stroke="black" points="519,-76 435,-76 435,-40 519,-40 519,-76"/>
<text text-anchor="start" x="443" y="-61.2" font-family="Courier,monospace" font-size="11.00">«abstract»</text>
<text text-anchor="start" x="460" y="-49.2" font-family="Courier,monospace" font-size="11.00">PPh21</text>
</g>
<!-- \\Puspa\\TaxLaw\\LawApplicable -->
<g id="node9" class="node"><title>\\Puspa\\TaxLaw\\LawApplicable</title>
<polygon fill="none" stroke="black" points="336,-76 232,-76 232,-40 336,-40 336,-76"/>
<text text-anchor="middle" x="284" y="-55.2" font-family="Courier,monospace" font-size="11.00">LawApplicable</text>
</g>
<!-- \\Puspa\\TaxLaw\\IncomeTax\\PPh21&#45;&gt;\\Puspa\\TaxLaw\\LawApplicable -->
<g id="edge4" class="edge"><title>\\Puspa\\TaxLaw\\IncomeTax\\PPh21&#45;&gt;\\Puspa\\TaxLaw\\LawApplicable</title>
<path fill="none" stroke="black" stroke-dasharray="1,5" d="M434.556,-58C408.857,-58 375.37,-58 346.6,-58"/>
<polygon fill="none" stroke="black" points="346.237,-54.5001 336.237,-58 346.237,-61.5001 346.237,-54.5001"/>
</g>
</g>
</svg>
