<?xml version="1.0" encoding="UTF-8" standalone="no"?>
<!DOCTYPE svg PUBLIC "-//W3C//DTD SVG 1.1//EN"
 "http://www.w3.org/Graphics/SVG/1.1/DTD/svg11.dtd">
<!-- Generated by graphviz version 2.38.0 (20140413.2041)
 -->
<!-- Title: G Pages: 1 -->
<svg width="772pt" height="500pt"
 viewBox="0.00 0.00 771.77 500.00" xmlns="http://www.w3.org/2000/svg" xmlns:xlink="http://www.w3.org/1999/xlink">
<g id="graph0" class="graph" transform="scale(1 1) rotate(0) translate(4 496)">
<title>G</title>
<polygon fill="white" stroke="none" points="-4,4 -4,-496 767.773,-496 767.773,4 -4,4"/>
<g id="clust1" class="cluster"><title>cluster_Global</title>
<path fill="none" stroke="gray" d="M20,-44C20,-44 743.773,-44 743.773,-44 749.773,-44 755.773,-50 755.773,-56 755.773,-56 755.773,-472 755.773,-472 755.773,-478 749.773,-484 743.773,-484 743.773,-484 20,-484 20,-484 14,-484 8,-478 8,-472 8,-472 8,-56 8,-56 8,-50 14,-44 20,-44"/>
<text text-anchor="middle" x="381.886" y="-471.2" font-family="Times New Roman,serif" font-size="11.00" fill="gray">Global</text>
</g>
<g id="clust2" class="cluster"><title>cluster_\Puspa</title>
<path fill="none" stroke="gray" d="M28,-52C28,-52 735.773,-52 735.773,-52 741.773,-52 747.773,-58 747.773,-64 747.773,-64 747.773,-444 747.773,-444 747.773,-450 741.773,-456 735.773,-456 735.773,-456 28,-456 28,-456 22,-456 16,-450 16,-444 16,-444 16,-64 16,-64 16,-58 22,-52 28,-52"/>
<text text-anchor="middle" x="381.886" y="-443.2" font-family="Times New Roman,serif" font-size="11.00" fill="gray">Puspa</text>
</g>
<g id="clust3" class="cluster"><title>cluster_\Puspa\TaxSubject</title>
<path fill="none" stroke="gray" d="M611.273,-60C611.273,-60 707.273,-60 707.273,-60 713.273,-60 719.273,-66 719.273,-72 719.273,-72 719.273,-120 719.273,-120 719.273,-126 713.273,-132 707.273,-132 707.273,-132 611.273,-132 611.273,-132 605.273,-132 599.273,-126 599.273,-120 599.273,-120 599.273,-72 599.273,-72 599.273,-66 605.273,-60 611.273,-60"/>
<text text-anchor="middle" x="659.273" y="-119.2" font-family="Times New Roman,serif" font-size="11.00" fill="gray">TaxSubject</text>
</g>
<g id="clust4" class="cluster"><title>cluster_\Puspa\TaxCalculator</title>
<path fill="none" stroke="gray" d="M46,-336C46,-336 727.773,-336 727.773,-336 733.773,-336 739.773,-342 739.773,-348 739.773,-348 739.773,-416 739.773,-416 739.773,-422 733.773,-428 727.773,-428 727.773,-428 46,-428 46,-428 40,-428 34,-422 34,-416 34,-416 34,-348 34,-348 34,-342 40,-336 46,-336"/>
<text text-anchor="middle" x="386.886" y="-415.2" font-family="Times New Roman,serif" font-size="11.00" fill="gray">TaxCalculator</text>
</g>
<g id="clust5" class="cluster"><title>cluster_\Puspa\TaxObject</title>
<path fill="none" stroke="gray" d="M36,-256C36,-256 707.273,-256 707.273,-256 713.273,-256 719.273,-262 719.273,-268 719.273,-268 719.273,-316 719.273,-316 719.273,-322 713.273,-328 707.273,-328 707.273,-328 36,-328 36,-328 30,-328 24,-322 24,-316 24,-316 24,-268 24,-268 24,-262 30,-256 36,-256"/>
<text text-anchor="middle" x="371.636" y="-315.2" font-family="Times New Roman,serif" font-size="11.00" fill="gray">TaxObject</text>
</g>
<g id="clust6" class="cluster"><title>cluster_\Puspa\TaxLaw</title>
<path fill="none" stroke="gray" d="M313.386,-140C313.386,-140 705.273,-140 705.273,-140 711.273,-140 717.273,-146 717.273,-152 717.273,-152 717.273,-236 717.273,-236 717.273,-242 711.273,-248 705.273,-248 705.273,-248 313.386,-248 313.386,-248 307.386,-248 301.386,-242 301.386,-236 301.386,-236 301.386,-152 301.386,-152 301.386,-146 307.386,-140 313.386,-140"/>
<text text-anchor="middle" x="509.33" y="-235.2" font-family="Times New Roman,serif" font-size="11.00" fill="gray">TaxLaw</text>
</g>
<g id="clust7" class="cluster"><title>cluster_\Puspa\TaxLaw\IncomeTax</title>
<path fill="none" stroke="gray" d="M621.273,-148C621.273,-148 697.273,-148 697.273,-148 703.273,-148 709.273,-154 709.273,-160 709.273,-160 709.273,-208 709.273,-208 709.273,-214 703.273,-220 697.273,-220 697.273,-220 621.273,-220 621.273,-220 615.273,-220 609.273,-214 609.273,-208 609.273,-208 609.273,-160 609.273,-160 609.273,-154 615.273,-148 621.273,-148"/>
<text text-anchor="middle" x="659.273" y="-207.2" font-family="Times New Roman,serif" font-size="11.00" fill="gray">IncomeTax</text>
</g>
<!-- \\Puspa\\TaxSubject\\PersonTaxable -->
<g id="node1" class="node"><title>\\Puspa\\TaxSubject\\PersonTaxable</title>
<polygon fill="none" stroke="black" points="711.273,-104 607.273,-104 607.273,-68 711.273,-68 711.273,-104"/>
<text text-anchor="middle" x="659.273" y="-83.2" font-family="Courier,monospace" font-size="11.00">PersonTaxable</text>
</g>
<!-- \\Puspa\\TaxSubject\\BaseSubjectTaxable -->
<g id="node10" class="node"><title>\\Puspa\\TaxSubject\\BaseSubjectTaxable</title>
<ellipse fill="none" stroke="black" cx="361.386" cy="-18" rx="153.273" ry="18"/>
<text text-anchor="middle" x="361.386" y="-14.3" font-family="Times New Roman,serif" font-size="14.00" fill="gray">\PuspaTaxSubject\BaseSubjectTaxable</text>
</g>
<!-- \\Puspa\\TaxSubject\\PersonTaxable&#45;&gt;\\Puspa\\TaxSubject\\BaseSubjectTaxable -->
<g id="edge1" class="edge"><title>\\Puspa\\TaxSubject\\PersonTaxable&#45;&gt;\\Puspa\\TaxSubject\\BaseSubjectTaxable</title>
<path fill="none" stroke="black" d="M607.071,-74.2329C561.62,-63.7874 494.475,-48.3564 442.015,-36.3002"/>
<polygon fill="none" stroke="black" points="442.595,-32.8422 432.065,-34.0134 441.027,-39.6643 442.595,-32.8422"/>
</g>
<!-- \\Puspa\\TaxCalculator\\IncomeTaxCalculator -->
<g id="node2" class="node"><title>\\Puspa\\TaxCalculator\\IncomeTaxCalculator</title>
<polygon fill="none" stroke="black" points="731.773,-390 586.773,-390 586.773,-354 731.773,-354 731.773,-390"/>
<text text-anchor="middle" x="659.273" y="-369.2" font-family="Courier,monospace" font-size="11.00">IncomeTaxCalculator</text>
</g>
<!-- \\Puspa\\TaxCalculator\\BaseTaxCalculator -->
<g id="node3" class="node"><title>\\Puspa\\TaxCalculator\\BaseTaxCalculator</title>
<polygon fill="none" stroke="black" points="426.886,-380 295.886,-380 295.886,-344 426.886,-344 426.886,-380"/>
<text text-anchor="middle" x="361.386" y="-359.2" font-family="Courier,monospace" font-size="11.00">BaseTaxCalculator</text>
</g>
<!-- \\Puspa\\TaxCalculator\\IncomeTaxCalculator&#45;&gt;\\Puspa\\TaxCalculator\\BaseTaxCalculator -->
<g id="edge4" class="edge"><title>\\Puspa\\TaxCalculator\\IncomeTaxCalculator&#45;&gt;\\Puspa\\TaxCalculator\\BaseTaxCalculator</title>
<path fill="none" stroke="black" d="M586.647,-369.579C541.489,-368.053 483.268,-366.085 437.465,-364.537"/>
<polygon fill="none" stroke="black" points="437.41,-361.034 427.297,-364.194 437.173,-368.03 437.41,-361.034"/>
</g>
<!-- \\Puspa\\TaxCalculator\\Calculator -->
<g id="node4" class="node"><title>\\Puspa\\TaxCalculator\\Calculator</title>
<polygon fill="none" stroke="black" points="126,-390 42,-390 42,-354 126,-354 126,-390"/>
<text text-anchor="middle" x="84" y="-369.2" font-family="Courier,monospace" font-size="11.00">Calculator</text>
</g>
<!-- \\Puspa\\TaxCalculator\\IncomeTaxCalculator&#45;&gt;\\Puspa\\TaxCalculator\\Calculator -->
<g id="edge5" class="edge"><title>\\Puspa\\TaxCalculator\\IncomeTaxCalculator&#45;&gt;\\Puspa\\TaxCalculator\\Calculator</title>
<path fill="none" stroke="black" stroke-dasharray="1,5" d="M586.522,-382.183C563.642,-384.978 538.189,-387.618 514.773,-389 378.666,-397.034 344.022,-398.355 208,-389 184.328,-387.372 158.274,-384.001 136.262,-380.687"/>
<polygon fill="none" stroke="black" points="136.551,-377.19 126.134,-379.124 135.483,-384.109 136.551,-377.19"/>
</g>
<!-- \\Puspa\\TaxCalculator\\BaseTaxCalculator&#45;&gt;\\Puspa\\TaxCalculator\\Calculator -->
<g id="edge6" class="edge"><title>\\Puspa\\TaxCalculator\\BaseTaxCalculator&#45;&gt;\\Puspa\\TaxCalculator\\Calculator</title>
<path fill="none" stroke="black" stroke-dasharray="1,5" d="M295.821,-364.345C247.15,-366.112 181.306,-368.503 136.229,-370.14"/>
<polygon fill="none" stroke="black" points="135.957,-366.647 126.091,-370.508 136.211,-373.643 135.957,-366.647"/>
</g>
<!-- \\Puspa\\TaxObject\\IncomeTaxable -->
<g id="node5" class="node"><title>\\Puspa\\TaxObject\\IncomeTaxable</title>
<polygon fill="none" stroke="black" points="711.273,-300 607.273,-300 607.273,-264 711.273,-264 711.273,-300"/>
<text text-anchor="middle" x="659.273" y="-279.2" font-family="Courier,monospace" font-size="11.00">IncomeTaxable</text>
</g>
<!-- \\Puspa\\TaxObject\\BaseObjectTaxable -->
<g id="node6" class="node"><title>\\Puspa\\TaxObject\\BaseObjectTaxable</title>
<polygon fill="none" stroke="black" points="426.886,-300 295.886,-300 295.886,-264 426.886,-264 426.886,-300"/>
<text text-anchor="start" x="327.386" y="-285.2" font-family="Courier,monospace" font-size="11.00">«abstract»</text>
<text text-anchor="start" x="303.886" y="-273.2" font-family="Courier,monospace" font-size="11.00">BaseObjectTaxable</text>
</g>
<!-- \\Puspa\\TaxObject\\IncomeTaxable&#45;&gt;\\Puspa\\TaxObject\\BaseObjectTaxable -->
<g id="edge2" class="edge"><title>\\Puspa\\TaxObject\\IncomeTaxable&#45;&gt;\\Puspa\\TaxObject\\BaseObjectTaxable</title>
<path fill="none" stroke="black" d="M607.071,-282C560.144,-282 490.091,-282 436.952,-282"/>
<polygon fill="none" stroke="black" points="436.899,-278.5 426.899,-282 436.899,-285.5 436.899,-278.5"/>
</g>
<!-- \\Puspa\\TaxObject\\ObjectTaxable -->
<g id="node7" class="node"><title>\\Puspa\\TaxObject\\ObjectTaxable</title>
<polygon fill="none" stroke="black" points="136,-300 32,-300 32,-264 136,-264 136,-300"/>
<text text-anchor="middle" x="84" y="-279.2" font-family="Courier,monospace" font-size="11.00">ObjectTaxable</text>
</g>
<!-- \\Puspa\\TaxObject\\BaseObjectTaxable&#45;&gt;\\Puspa\\TaxObject\\ObjectTaxable -->
<g id="edge7" class="edge"><title>\\Puspa\\TaxObject\\BaseObjectTaxable&#45;&gt;\\Puspa\\TaxObject\\ObjectTaxable</title>
<path fill="none" stroke="black" stroke-dasharray="1,5" d="M295.821,-282C250.689,-282 190.792,-282 146.379,-282"/>
<polygon fill="none" stroke="black" points="146.296,-278.5 136.296,-282 146.296,-285.5 146.296,-278.5"/>
</g>
<!-- \\Puspa\\TaxLaw\\IncomeTax\\PPh21 -->
<g id="node8" class="node"><title>\\Puspa\\TaxLaw\\IncomeTax\\PPh21</title>
<polygon fill="none" stroke="black" points="701.273,-192 617.273,-192 617.273,-156 701.273,-156 701.273,-192"/>
<text text-anchor="start" x="625.273" y="-177.2" font-family="Courier,monospace" font-size="11.00">«abstract»</text>
<text text-anchor="start" x="642.273" y="-165.2" font-family="Courier,monospace" font-size="11.00">PPh21</text>
</g>
<!-- \\Puspa\\TaxLaw\\LawApplicable -->
<g id="node9" class="node"><title>\\Puspa\\TaxLaw\\LawApplicable</title>
<polygon fill="none" stroke="black" points="413.386,-192 309.386,-192 309.386,-156 413.386,-156 413.386,-192"/>
<text text-anchor="middle" x="361.386" y="-171.2" font-family="Courier,monospace" font-size="11.00">LawApplicable</text>
</g>
<!-- \\Puspa\\TaxLaw\\IncomeTax\\PPh21&#45;&gt;\\Puspa\\TaxLaw\\LawApplicable -->
<g id="edge3" class="edge"><title>\\Puspa\\TaxLaw\\IncomeTax\\PPh21&#45;&gt;\\Puspa\\TaxLaw\\LawApplicable</title>
<path fill="none" stroke="black" stroke-dasharray="1,5" d="M617.131,-174C566.949,-174 481.662,-174 423.725,-174"/>
<polygon fill="none" stroke="black" points="423.599,-170.5 413.599,-174 423.599,-177.5 423.599,-170.5"/>
</g>
</g>
</svg>
